<?xml version="1.0" standalone="no"?>
<!DOCTYPE svg PUBLIC "-//W3C//DTD SVG 20010904//EN"
 "http://www.w3.org/TR/2001/REC-SVG-20010904/DTD/svg10.dtd">
<svg version="1.0" xmlns="http://www.w3.org/2000/svg"
 width="1280.000000pt" height="1248.000000pt" viewBox="0 0 1280.000000 1248.000000"
 preserveAspectRatio="xMidYMid meet">
<g transform="translate(0.000000,1248.000000) scale(0.100000,-0.100000)"
fill="#000000" stroke="none">
<path d="M9737 12454 c-128 -34 -234 -93 -329 -182 -44 -42 -97 -101 -117
-131 -21 -31 -487 -821 -1036 -1756 -549 -935 -1367 -2328 -1818 -3095 -450
-767 -955 -1626 -1120 -1907 l-301 -513 -53 0 c-52 0 -91 21 -1471 792 -779
435 -1441 802 -1469 815 -129 60 -278 29 -380 -78 -17 -19 -382 -581 -809
-1249 -903 -1410 -863 -1336 -814 -1499 26 -87 67 -148 127 -188 26 -17 1085
-620 2353 -1339 1268 -719 2605 -1477 2972 -1686 368 -208 680 -383 695 -389
56 -21 174 -49 208 -49 58 0 223 48 295 86 89 46 172 115 238 194 34 41 460
756 1126 1890 590 1004 1859 3164 2821 4800 962 1636 1774 3019 1806 3074 74
126 139 329 139 431 0 63 -44 229 -81 301 -36 72 -104 153 -162 193 -59 40
-2389 1407 -2457 1441 -72 37 -187 70 -236 69 -21 -1 -79 -12 -127 -25z"/>
</g>
</svg>
